<svg width="79" height="80" viewBox="0 0 79 80" fill="none" xmlns="http://www.w3.org/2000/svg">
<path fill-rule="evenodd" clip-rule="evenodd" d="M38.5453 1.05729C38.0209 2.22686 34.8098 8.61034 30.5203 17.0107C26.3706 25.1368 26.1159 29.1513 29.3702 35.1273C33.2853 42.3166 35.2422 47.6342 36.1045 53.4272C36.4375 55.6637 36.4331 55.8227 36.0405 55.8227C35.7807 55.8227 35.6984 55.6558 35.6047 54.9406C34.0811 43.3015 27.2418 35.1243 17.421 33.1998C15.4755 32.8186 11.6444 32.8092 10.2341 33.1822C6.75342 34.1026 4.06481 36.0015 2.13765 38.9005C0.614072 41.1922 -0.0198572 43.2963 0.000472915 45.9937C0.0224832 48.9215 0.873826 51.0241 2.91238 53.1851C4.66144 55.039 6.90094 56.3828 9.84527 57.3451C10.6765 57.6166 11.3818 57.8389 11.4125 57.8389C11.4435 57.8389 11.3062 57.4042 11.1076 56.8728C10.5731 55.4431 10.5876 52.7953 11.1385 51.2691C11.9294 49.0778 13.4292 47.4653 15.3586 46.7323C20.0607 44.9459 27.5617 48.6633 30.3084 54.1413C31.1858 55.8912 31.2145 55.8222 29.6093 55.8264C27.9258 55.8307 26.9587 56.1997 26.4518 57.031C26.0282 57.7258 26.0225 58.2786 26.4319 58.95C26.9583 59.8134 27.9767 60.1911 29.7771 60.1911C31.5393 60.1911 31.5148 60.1624 30.9786 61.5957C30.1979 63.6825 28.4449 64.8348 26.2784 64.6856C22.814 64.447 21.5717 61.6266 23.2727 57.8617C23.5383 57.2737 23.7142 56.7256 23.6637 56.6436C23.5367 56.4383 22.0102 56.4569 20.8081 56.6784C17.0112 57.378 14.6415 60.8375 15.2079 64.8536C15.6476 67.9715 17.7602 70.1705 21.4072 71.3061C22.466 71.6358 23.0163 71.6969 24.8516 71.6887C26.7552 71.6803 27.1977 71.6228 28.2959 71.2413C30.0159 70.6436 31.0134 70.0546 32.2252 68.9204C34.0115 67.2488 35.1263 64.8531 35.5835 61.7033C35.7765 60.3737 35.8182 60.2751 36.1868 60.2751C36.5723 60.2751 36.582 60.3111 36.5536 61.6193C36.5375 62.3585 36.4768 63.5683 36.4185 64.3075C36.3154 65.6184 36.2932 65.6732 35.5195 66.5223C34.8951 67.2077 34.5922 67.7616 34.0959 69.1266C33.2484 71.4565 32.762 72.3191 31.7742 73.243L30.9418 74.0216L32.2651 73.9183C33.721 73.8047 34.5245 73.5804 35.2266 73.0913L35.6887 72.7695L35.6927 73.243C35.6989 73.9784 36.3512 75.3661 37.8269 77.7823L39.1812 80L40.6227 77.4387C42.0579 74.8882 42.5774 73.7301 42.5774 73.0812C42.5774 72.7637 42.598 72.759 42.8798 73.014C43.363 73.4514 44.5654 73.8032 45.9315 73.9072L47.1978 74.0036L46.6432 73.4655C45.7549 72.6035 45.3184 71.8208 44.5943 69.7904C43.7789 67.5047 43.77 67.4874 42.8178 66.3184C42.0831 65.4163 42.06 65.3518 41.905 63.7581C41.8176 62.8591 41.744 61.6833 41.7417 61.1454C41.7376 60.2266 41.76 60.1709 42.1153 60.2214C42.4514 60.2692 42.5076 60.4057 42.6221 61.4512C42.9324 64.2894 43.9434 66.7176 45.5177 68.4068C46.8028 69.7859 48.1594 70.6633 49.873 71.2238C51.0308 71.6027 51.5389 71.67 53.3305 71.6823C55.6597 71.6981 56.838 71.4602 58.604 70.6171C61.5269 69.2219 63.0755 66.833 63.0755 63.7195C63.0755 59.4705 60.0266 56.4947 55.6735 56.4947C54.3623 56.4947 54.2966 56.566 54.7763 57.4681C55.8576 59.5019 55.9853 61.7963 55.0881 63.0729C54.3209 64.1645 53.2421 64.6447 51.5698 64.639C50.0461 64.6338 49.2673 64.3243 48.3422 63.3562C47.7499 62.7364 46.95 61.1486 46.9475 60.5878C46.9458 60.2466 47.0374 60.225 48.752 60.1661C50.7642 60.0967 51.4737 59.8169 52.0283 58.8747C52.4069 58.2314 52.3995 57.7154 52.0021 57.0638C51.4851 56.2158 50.452 55.8227 48.7409 55.8227C47.8074 55.8227 47.2819 55.7573 47.2819 55.641C47.2819 55.3294 48.4635 53.0878 49.046 52.2946C49.3515 51.8786 50.0814 51.0797 50.6679 50.5192C54.7539 46.6152 60.4122 45.1747 63.8196 47.1716C66.8968 48.975 68.41 53.4444 67.1057 56.8771C66.9264 57.3489 66.8053 57.7604 66.8365 57.7915C66.8676 57.8226 67.603 57.6105 68.4707 57.32C71.4736 56.3146 73.6982 54.9701 75.4 53.132C77.3442 51.032 78.232 48.7678 78.2318 45.9096C78.2316 43.1133 77.487 40.8648 75.749 38.4141C74.8577 37.1571 73.0157 35.4349 71.7499 34.6752C67.4273 32.0803 60.7095 32.3006 55.0681 35.2221C51.1026 37.2757 47.6097 40.9098 45.4249 45.2549C44.171 47.7489 43.0381 51.6303 42.6426 54.7868C42.5421 55.5895 42.236 56.0413 41.9717 55.777C41.8537 55.659 42.1758 53.275 42.6012 51.1182C43.4978 46.5725 44.9163 42.8235 48.0583 36.6964C50.7674 31.4135 51.0159 30.6476 51.0125 27.5958C51.0105 25.8941 50.929 25.1841 50.5829 23.854C49.9703 21.4998 49.3281 20.095 45.3804 12.4742C42.3994 6.71981 40.0245 1.9456 39.2831 0.217207C39.1166 -0.170745 39.0742 -0.122356 38.5453 1.05729Z" fill="white"/>
</svg>
